<?xml version="1.0" encoding="UTF-8" standalone="no"?>
<!DOCTYPE svg PUBLIC "-//W3C//DTD SVG 1.1//EN"
 "http://www.w3.org/Graphics/SVG/1.1/DTD/svg11.dtd">
<!-- Generated by graphviz version 2.28.0 (20111028.1807)
 -->
<!-- Title: bit_counter Pages: 1 -->
<svg width="281pt" height="698pt"
 viewBox="0.00 0.00 281.12 698.00" xmlns="http://www.w3.org/2000/svg" xmlns:xlink="http://www.w3.org/1999/xlink">
<g id="graph1" class="graph" transform="scale(1 1) rotate(0) translate(4 694)">
<title>bit_counter</title>
<polygon fill="white" stroke="white" points="-4,5 -4,-694 278.117,-694 278.117,5 -4,5"/>
<g id="node1" class="node"><title></title>
</g>
<!-- 0 -->
<g id="node4" class="node"><title>0</title>
<ellipse fill="none" stroke="black" cx="74" cy="-598" rx="18" ry="18"/>
<text text-anchor="middle" x="74" y="-592.4" font-family="Times,serif" font-size="14.00">0</text>
</g>
<!-- &#45;&gt;0 -->
<g id="edge2" class="edge"><title>&#45;&gt;0</title>
<path fill="none" stroke="black" d="M74,-653.937C74,-645.807 74,-635.876 74,-626.705"/>
<polygon fill="black" stroke="black" points="77.5001,-626.441 74,-616.441 70.5001,-626.441 77.5001,-626.441"/>
</g>
<!-- 7 -->
<g id="node2" class="node"><title>7</title>
<ellipse fill="none" stroke="black" cx="39" cy="-308" rx="18" ry="18"/>
<ellipse fill="none" stroke="black" cx="39" cy="-308" rx="22" ry="22"/>
<text text-anchor="middle" x="39" y="-302.4" font-family="Times,serif" font-size="14.00">7</text>
</g>
<!-- 0&#45;&gt;7 -->
<g id="edge8" class="edge"><title>0&#45;&gt;7</title>
<path fill="none" stroke="black" d="M71.9154,-579.847C66.1956,-532.781 50.1923,-401.097 42.8141,-340.385"/>
<polygon fill="black" stroke="black" points="46.2634,-339.755 41.5825,-330.25 39.3146,-340.6 46.2634,-339.755"/>
<text text-anchor="middle" x="74.1655" y="-457.4" font-family="Times,serif" font-size="14.00">_/_;L</text>
</g>
<!-- 0&#45;&gt;0 -->
<g id="edge4" class="edge"><title>0&#45;&gt;0</title>
<path fill="none" stroke="black" d="M91.4203,-603.316C108.791,-606.346 128,-604.574 128,-598 128,-592.71 115.562,-590.529 101.652,-591.458"/>
<polygon fill="black" stroke="black" points="100.933,-588.019 91.4203,-592.684 101.766,-594.969 100.933,-588.019"/>
<text text-anchor="middle" x="143.559" y="-592.4" font-family="Times,serif" font-size="14.00">0/0;R</text>
</g>
<!-- 1 -->
<g id="node7" class="node"><title>1</title>
<ellipse fill="none" stroke="black" cx="153" cy="-508" rx="18" ry="18"/>
<text text-anchor="middle" x="153" y="-502.4" font-family="Times,serif" font-size="14.00">1</text>
</g>
<!-- 0&#45;&gt;1 -->
<g id="edge6" class="edge"><title>0&#45;&gt;1</title>
<path fill="none" stroke="black" d="M85.6567,-584.015C98.4926,-569.717 119.31,-546.529 134.405,-529.714"/>
<polygon fill="black" stroke="black" points="137.22,-531.817 141.295,-522.038 132.011,-527.141 137.22,-531.817"/>
<text text-anchor="middle" x="136.559" y="-547.4" font-family="Times,serif" font-size="14.00">1/1;R</text>
</g>
<!-- 1&#45;&gt;1 -->
<g id="edge10" class="edge"><title>1&#45;&gt;1</title>
<path fill="none" stroke="black" d="M169.864,-514.376C187.378,-518.247 207,-516.121 207,-508 207,-501.402 194.046,-498.761 179.794,-500.079"/>
<polygon fill="black" stroke="black" points="179.207,-496.628 169.864,-501.624 180.283,-503.545 179.207,-496.628"/>
<text text-anchor="middle" x="222.559" y="-510.8" font-family="Times,serif" font-size="14.00">0/0;R</text>
<text text-anchor="middle" x="222.559" y="-494" font-family="Times,serif" font-size="14.00">1/1;R</text>
</g>
<!-- 2 -->
<g id="node11" class="node"><title>2</title>
<ellipse fill="none" stroke="black" cx="153" cy="-418" rx="18" ry="18"/>
<text text-anchor="middle" x="153" y="-412.4" font-family="Times,serif" font-size="14.00">2</text>
</g>
<!-- 1&#45;&gt;2 -->
<g id="edge12" class="edge"><title>1&#45;&gt;2</title>
<path fill="none" stroke="black" d="M153,-489.614C153,-477.24 153,-460.369 153,-446.22"/>
<polygon fill="black" stroke="black" points="156.5,-446.05 153,-436.05 149.5,-446.05 156.5,-446.05"/>
<text text-anchor="middle" x="168.166" y="-457.4" font-family="Times,serif" font-size="14.00">_/_;L</text>
</g>
<!-- 2&#45;&gt;7 -->
<g id="edge16" class="edge"><title>2&#45;&gt;7</title>
<path fill="none" stroke="black" d="M137.064,-409.535C124.685,-403.264 107.519,-393.497 94.6689,-382 79.7172,-368.623 66.01,-350.752 55.9383,-336.04"/>
<polygon fill="black" stroke="black" points="58.6131,-333.742 50.1585,-327.357 52.7859,-337.621 58.6131,-333.742"/>
<text text-anchor="middle" x="110.166" y="-359.4" font-family="Times,serif" font-size="14.00">_/_;L</text>
</g>
<!-- 3 -->
<g id="node13" class="node"><title>3</title>
<ellipse fill="none" stroke="black" cx="121" cy="-308" rx="18" ry="18"/>
<text text-anchor="middle" x="121" y="-302.4" font-family="Times,serif" font-size="14.00">3</text>
</g>
<!-- 2&#45;&gt;3 -->
<g id="edge14" class="edge"><title>2&#45;&gt;3</title>
<path fill="none" stroke="black" d="M148.14,-400.597C142.995,-383.232 134.798,-355.569 128.758,-335.182"/>
<polygon fill="black" stroke="black" points="132.103,-334.151 125.906,-325.557 125.391,-336.14 132.103,-334.151"/>
<text text-anchor="middle" x="156.166" y="-367.8" font-family="Times,serif" font-size="14.00">0/_;L</text>
<text text-anchor="middle" x="156.166" y="-351" font-family="Times,serif" font-size="14.00">1/_;L</text>
</g>
<!-- 3&#45;&gt;3 -->
<g id="edge18" class="edge"><title>3&#45;&gt;3</title>
<path fill="none" stroke="black" d="M137.864,-314.956C155.378,-319.178 175,-316.859 175,-308 175,-300.802 162.046,-297.921 147.794,-299.359"/>
<polygon fill="black" stroke="black" points="147.137,-295.92 137.864,-301.044 148.308,-302.822 147.137,-295.92"/>
<text text-anchor="middle" x="190.166" y="-310.8" font-family="Times,serif" font-size="14.00">0/0;L</text>
<text text-anchor="middle" x="190.166" y="-294" font-family="Times,serif" font-size="14.00">1/1;L</text>
</g>
<!-- 4 -->
<g id="node17" class="node"><title>4</title>
<ellipse fill="none" stroke="black" cx="121" cy="-214" rx="18" ry="18"/>
<text text-anchor="middle" x="121" y="-208.4" font-family="Times,serif" font-size="14.00">4</text>
</g>
<!-- 3&#45;&gt;4 -->
<g id="edge20" class="edge"><title>3&#45;&gt;4</title>
<path fill="none" stroke="black" d="M121,-289.696C121,-276.46 121,-257.947 121,-242.663"/>
<polygon fill="black" stroke="black" points="124.5,-242.227 121,-232.227 117.5,-242.227 124.5,-242.227"/>
<text text-anchor="middle" x="136.166" y="-253.4" font-family="Times,serif" font-size="14.00">_/_;L</text>
</g>
<!-- 5 -->
<g id="node19" class="node"><title>5</title>
<ellipse fill="none" stroke="black" cx="18" cy="-124" rx="18" ry="18"/>
<text text-anchor="middle" x="18" y="-118.4" font-family="Times,serif" font-size="14.00">5</text>
</g>
<!-- 4&#45;&gt;5 -->
<g id="edge22" class="edge"><title>4&#45;&gt;5</title>
<path fill="none" stroke="black" d="M107.535,-201.496C90.1851,-186.673 59.8237,-160.733 39.3217,-143.217"/>
<polygon fill="black" stroke="black" points="41.3453,-140.342 31.4688,-136.507 36.7982,-145.664 41.3453,-140.342"/>
<text text-anchor="middle" x="94.1655" y="-163.4" font-family="Times,serif" font-size="14.00">1/0;L</text>
</g>
<!-- 6 -->
<g id="node21" class="node"><title>6</title>
<ellipse fill="none" stroke="black" cx="156" cy="-18" rx="18" ry="18"/>
<text text-anchor="middle" x="156" y="-12.4" font-family="Times,serif" font-size="14.00">6</text>
</g>
<!-- 4&#45;&gt;6 -->
<g id="edge24" class="edge"><title>4&#45;&gt;6</title>
<path fill="none" stroke="black" d="M124.045,-196.123C130.121,-162.443 143.797,-86.6399 151.133,-45.9794"/>
<polygon fill="black" stroke="black" points="154.606,-46.4385 152.937,-35.976 147.717,-45.1957 154.606,-46.4385"/>
<text text-anchor="middle" x="155.559" y="-126.8" font-family="Times,serif" font-size="14.00">0/1;R</text>
<text text-anchor="middle" x="155.559" y="-110" font-family="Times,serif" font-size="14.00">_/1;R</text>
</g>
<!-- 5&#45;&gt;5 -->
<g id="edge26" class="edge"><title>5&#45;&gt;5</title>
<path fill="none" stroke="black" d="M34.8636,-130.376C52.3779,-134.247 72,-132.121 72,-124 72,-117.402 59.0463,-114.761 44.7944,-116.079"/>
<polygon fill="black" stroke="black" points="44.2068,-112.628 34.8636,-117.624 45.2827,-119.545 44.2068,-112.628"/>
<text text-anchor="middle" x="87.1655" y="-118.4" font-family="Times,serif" font-size="14.00">1/0;L</text>
</g>
<!-- 5&#45;&gt;6 -->
<g id="edge28" class="edge"><title>5&#45;&gt;6</title>
<path fill="none" stroke="black" d="M30.5092,-110.757C45.5759,-96.3264 71.9753,-72.0314 96.8828,-54 107.793,-46.1021 120.58,-38.3617 131.466,-32.1767"/>
<polygon fill="black" stroke="black" points="133.413,-35.0988 140.448,-27.1768 130.008,-28.9825 133.413,-35.0988"/>
<text text-anchor="middle" x="112.559" y="-73.8" font-family="Times,serif" font-size="14.00">0/1;R</text>
<text text-anchor="middle" x="112.559" y="-57" font-family="Times,serif" font-size="14.00">_/1;R</text>
</g>
<!-- 6&#45;&gt;1 -->
<g id="edge32" class="edge"><title>6&#45;&gt;1</title>
<path fill="none" stroke="black" d="M171.375,-28.0446C196.112,-43.8895 242,-79.1875 242,-123 242,-419 242,-419 242,-419 242,-454.996 204.733,-481.255 178.429,-495.305"/>
<polygon fill="black" stroke="black" points="176.658,-492.279 169.324,-499.925 179.825,-498.522 176.658,-492.279"/>
<text text-anchor="middle" x="257.559" y="-253.4" font-family="Times,serif" font-size="14.00">_/_;R</text>
</g>
<!-- 6&#45;&gt;6 -->
<g id="edge30" class="edge"><title>6&#45;&gt;6</title>
<path fill="none" stroke="black" d="M172.586,-25.4625C190.17,-30.1359 210,-27.6484 210,-18 210,-10.1606 196.909,-7.04863 182.568,-8.66397"/>
<polygon fill="black" stroke="black" points="181.768,-5.25285 172.586,-10.5375 183.06,-12.1327 181.768,-5.25285"/>
<text text-anchor="middle" x="225.559" y="-20.8" font-family="Times,serif" font-size="14.00">0/0;R</text>
<text text-anchor="middle" x="225.559" y="-4" font-family="Times,serif" font-size="14.00">1/1;R</text>
</g>
</g>
</svg>
